<svg xmlns="http://www.w3.org/2000/svg" viewBox="0 0 320 320" role="img" aria-label="Bít giảng bài">
<defs>
<linearGradient id="gHead" x1="0" y1="0" x2="1" y2="1"><stop offset="0" stop-color="#3A56E4"/><stop offset="1" stop-color="#8B5CF6"/></linearGradient>
<linearGradient id="gBody" x1="0" y1="0" x2="1" y2="1"><stop offset="0" stop-color="#8B5CF6"/><stop offset="1" stop-color="#6EE7F9"/></linearGradient>
<linearGradient id="gSoft" x1="0" y1="0" x2="1" y2="1"><stop offset="0" stop-color="#E0E7FF"/><stop offset="1" stop-color="#CFFAFE"/></linearGradient>
<linearGradient id="gCard" x1="0" y1="0" x2="1" y2="0"><stop offset="0" stop-color="#4F46E5"/><stop offset="1" stop-color="#6EE7F9"/></linearGradient>
</defs>
<g>
<line x1="58" y1="200" x2="44" y2="304" stroke="#CBD5E1" stroke-width="7" stroke-linecap="round"/>
<line x1="150" y1="200" x2="164" y2="304" stroke="#CBD5E1" stroke-width="7" stroke-linecap="round"/>
<rect x="18" y="52" width="170" height="150" rx="16" fill="#FFFFFF" stroke="#E0E7FF" stroke-width="4"/>
<circle cx="62" cy="100" r="20" fill="#6EE7F9"/>
<path d="M112 118 L136 78 L160 118 Z" fill="#8B5CF6"/>
<path d="M44 170 L78 150 L108 160 L156 134" stroke="#4F46E5" stroke-width="6" stroke-linecap="round" stroke-linejoin="round" fill="none"/>
</g>
<g transform="translate(130.0 80.2) scale(0.72)">
<ellipse cx="150" cy="322" rx="72" ry="10" fill="#0F172A" opacity=".08"/>
<line x1="150" y1="44" x2="150" y2="66" stroke="#4F46E5" stroke-width="7" stroke-linecap="round"/>
<circle cx="150" cy="38" r="11" fill="#6EE7F9"/><circle cx="146" cy="34" r="3.5" fill="#FFFFFF" opacity=".8"/>
<rect x="54" y="100" width="18" height="44" rx="9" fill="#6EE7F9"/>
<rect x="228" y="100" width="18" height="44" rx="9" fill="#6EE7F9"/>
<rect x="68" y="62" width="164" height="124" rx="42" fill="url(#gHead)"/>
<path d="M92 76 Q110 68 132 68" stroke="#FFFFFF" stroke-width="7" stroke-linecap="round" opacity=".25" fill="none"/>
<rect x="88" y="82" width="124" height="84" rx="30" fill="#0F172A"/>
<rect x="112" y="104" width="20" height="28" rx="10" fill="#6EE7F9"/><rect x="168" y="104" width="20" height="28" rx="10" fill="#6EE7F9"/>
<path d="M130 146 Q150 160 170 146" stroke="#6EE7F9" stroke-width="5" stroke-linecap="round" fill="none"/>
<rect x="134" y="184" width="32" height="14" rx="5" fill="#4F46E5"/>
<path d="M196 222 Q220 246 216 276" stroke="#7FA6F6" stroke-width="18" stroke-linecap="round" fill="none"/>
<rect x="90" y="194" width="120" height="104" rx="38" fill="url(#gBody)"/>
<ellipse cx="124" cy="214" rx="18" ry="8" fill="#FFFFFF" opacity=".2" transform="rotate(-18 124 214)"/>
<circle cx="150" cy="240" r="16" fill="#FFFFFF" opacity=".92"/><circle cx="150" cy="240" r="7" fill="#8B5CF6"/>
<rect x="104" y="294" width="36" height="20" rx="10" fill="#4F46E5"/>
<rect x="160" y="294" width="36" height="20" rx="10" fill="#4F46E5"/>
<line x1="36" y1="206" x2="-10" y2="170" stroke="#FBBF24" stroke-width="7" stroke-linecap="round"/>
<path d="M104 222 Q68 224 36 206" stroke="#8B7CF4" stroke-width="18" stroke-linecap="round" fill="none"/><circle cx="36" cy="206" r="11" fill="#8B7CF4"/></g></svg>
